<svg width="17" height="17" viewBox="0 0 17 17" fill="none" xmlns="http://www.w3.org/2000/svg">
<path fill-rule="evenodd" clip-rule="evenodd" d="M8.5 0C3.80559 0 0 3.80559 0 8.5C0 13.1944 3.80559 17 8.5 17C13.1944 17 17 13.1944 17 8.5C17 3.80559 13.1944 0 8.5 0ZM8.48721 9.21517L5.31204 6.91032V11.769H4.78157C4.48602 11.769 4.2511 11.534 4.2511 11.2385V5.86571C4.2511 5.84322 4.25248 5.82211 4.2551 5.80235C4.26473 5.71806 4.29548 5.63557 4.34963 5.56258C4.52391 5.32766 4.86494 5.2746 5.10744 5.44889L8.49479 7.91176L11.9049 5.41861C12.1398 5.24429 12.4733 5.29734 12.6475 5.53984C12.7402 5.66472 12.7686 5.8174 12.7385 5.95924V11.2461C12.7385 11.534 12.5035 11.769 12.208 11.769H11.6775V6.89874L8.48721 9.21517Z" fill="#CFCFCF"/>
</svg>
