<svg width="17" height="17" viewBox="0 0 17 17" fill="none" xmlns="http://www.w3.org/2000/svg">
<path fill-rule="evenodd" clip-rule="evenodd" d="M8.51527 0.0639648C3.83015 0.0639648 0.0310059 3.92718 0.0310059 8.69308C0.0310059 12.5057 2.46201 15.7403 5.83306 16.8813C6.25708 16.9612 6.41275 16.6942 6.41275 16.4662C6.41275 16.2605 6.40488 15.5807 6.40123 14.8596C4.0409 15.3816 3.54284 13.8415 3.54284 13.8415C3.1569 12.8441 2.60082 12.5789 2.60082 12.5789C1.83104 12.0433 2.65884 12.0543 2.65884 12.0543C3.51081 12.115 3.95941 12.9435 3.95941 12.9435C4.71612 14.2628 5.9442 13.8814 6.42834 13.6609C6.50449 13.1033 6.72437 12.7223 6.96701 12.507C5.08253 12.2888 3.10154 11.5489 3.10154 8.24238C3.10154 7.30026 3.43297 6.53048 3.97571 5.92616C3.88762 5.70868 3.59721 4.83115 4.0579 3.64253C4.0579 3.64253 4.77035 3.41061 6.39168 4.52706C7.06844 4.33587 7.79425 4.23998 8.51527 4.2367C9.23629 4.23998 9.96266 4.33587 10.6407 4.52706C12.26 3.41061 12.9715 3.64253 12.9715 3.64253C13.4333 4.83115 13.1428 5.70868 13.0547 5.92616C13.5987 6.53048 13.9279 7.30026 13.9279 8.24238C13.9279 11.5567 11.9431 12.2865 10.0538 12.5001C10.3582 12.7679 10.6293 13.2931 10.6293 14.0981C10.6293 15.2526 10.6195 16.1819 10.6195 16.4662C10.6195 16.6959 10.7722 16.9649 11.2023 16.8802C14.5715 15.7379 16.9994 12.5044 16.9994 8.69308C16.9994 3.92718 13.2008 0.0639648 8.51527 0.0639648Z" fill="#CFCFCF"/>
<path fill-rule="evenodd" clip-rule="evenodd" d="M3.24443 12.4535C3.22574 12.4966 3.15943 12.5093 3.09901 12.4798C3.03748 12.4517 3.00291 12.3932 3.02287 12.3502C3.04113 12.3061 3.10758 12.2939 3.16898 12.3232C3.23066 12.3515 3.26578 12.4105 3.24443 12.4535Z" fill="#CFCFCF"/>
<path fill-rule="evenodd" clip-rule="evenodd" d="M3.58808 12.8434C3.54762 12.8815 3.46852 12.8638 3.41485 12.8035C3.35935 12.7433 3.34896 12.6629 3.38998 12.6242C3.43171 12.586 3.50842 12.6039 3.56406 12.664C3.61955 12.7249 3.63037 12.8048 3.58808 12.8434Z" fill="#CFCFCF"/>
<path fill-rule="evenodd" clip-rule="evenodd" d="M3.9226 13.3404C3.87062 13.3771 3.78562 13.3427 3.73307 13.2659C3.68109 13.1892 3.68109 13.0972 3.7342 13.0603C3.78688 13.0234 3.87062 13.0566 3.92387 13.1327C3.97571 13.2106 3.97571 13.3028 3.9226 13.3404Z" fill="#CFCFCF"/>
<path fill-rule="evenodd" clip-rule="evenodd" d="M4.3809 13.8205C4.33439 13.8727 4.23534 13.8587 4.16285 13.7875C4.08867 13.7179 4.06801 13.6192 4.11466 13.567C4.16172 13.5147 4.26134 13.5294 4.33439 13.6C4.40801 13.6695 4.43049 13.7689 4.3809 13.8205Z" fill="#CFCFCF"/>
<path fill-rule="evenodd" clip-rule="evenodd" d="M5.01313 14.0993C4.99262 14.1669 4.89722 14.1976 4.80112 14.1689C4.70516 14.1393 4.64236 14.0601 4.66175 13.9918C4.6817 13.9238 4.77752 13.8918 4.87432 13.9225C4.97014 13.952 5.03308 14.0306 5.01313 14.0993Z" fill="#CFCFCF"/>
<path fill-rule="evenodd" clip-rule="evenodd" d="M5.70746 14.151C5.70985 14.2222 5.62836 14.2812 5.52749 14.2823C5.42605 14.2848 5.344 14.2272 5.34287 14.1572C5.34287 14.0853 5.42253 14.0268 5.52397 14.0251C5.62485 14.0231 5.70746 14.0803 5.70746 14.151Z" fill="#CFCFCF"/>
<path fill-rule="evenodd" clip-rule="evenodd" d="M6.3536 14.0391C6.36568 14.1086 6.29558 14.1799 6.1954 14.1987C6.09691 14.2172 6.00573 14.1743 5.99323 14.1054C5.98101 14.0343 6.05238 13.963 6.15072 13.9445C6.25104 13.9268 6.34082 13.9685 6.3536 14.0391Z" fill="#CFCFCF"/>
</svg>
