<svg width="17" height="17" viewBox="0 0 17 17" fill="none" xmlns="http://www.w3.org/2000/svg">
<path fill-rule="evenodd" clip-rule="evenodd" d="M0 8.5C0 3.80558 3.80558 0 8.5 0C13.1944 0 17 3.80558 17 8.5C17 13.1944 13.1944 17 8.5 17C3.80558 17 0 13.1944 0 8.5ZM8.50042 3.96667C7.26923 3.96667 7.11472 3.97205 6.63116 3.99406C6.14854 4.01616 5.81912 4.09256 5.53087 4.20467C5.23271 4.32046 4.97978 4.47535 4.7278 4.72742C4.47563 4.9794 4.32074 5.23233 4.20457 5.5304C4.09218 5.81874 4.01568 6.14826 3.99396 6.63069C3.97233 7.11425 3.96667 7.26886 3.96667 8.50005C3.96667 9.73124 3.97214 9.88528 3.99406 10.3688C4.01625 10.8515 4.09266 11.1809 4.20467 11.4691C4.32055 11.7673 4.47544 12.0202 4.72752 12.2722C4.9794 12.5244 5.23233 12.6796 5.5303 12.7954C5.81874 12.9075 6.14826 12.9839 6.63078 13.006C7.11434 13.028 7.26876 13.0334 8.49986 13.0334C9.73114 13.0334 9.88518 13.028 10.3687 13.006C10.8514 12.9839 11.1812 12.9075 11.4696 12.7954C11.7677 12.6796 12.0202 12.5244 12.2721 12.2722C12.5243 12.0202 12.6792 11.7673 12.7953 11.4692C12.9068 11.1809 12.9833 10.8514 13.0059 10.3689C13.0277 9.88537 13.0333 9.73124 13.0333 8.50005C13.0333 7.26886 13.0277 7.11434 13.0059 6.63078C12.9833 6.14817 12.9068 5.81874 12.7953 5.53049C12.6792 5.23233 12.5243 4.9794 12.2721 4.72742C12.0199 4.47526 11.7678 4.32036 11.4693 4.20467C11.1803 4.09256 10.8507 4.01616 10.3681 3.99406C9.88452 3.97205 9.73058 3.96667 8.49901 3.96667H8.50042Z" fill="#CFCFCF"/>
<path fill-rule="evenodd" clip-rule="evenodd" d="M8.09374 4.78362C8.21444 4.78343 8.34912 4.78362 8.50042 4.78362C9.71084 4.78362 9.8543 4.78796 10.3323 4.80969C10.7743 4.8299 11.0142 4.90375 11.174 4.9658C11.3855 5.04797 11.5364 5.1462 11.6949 5.30486C11.8536 5.46353 11.9518 5.61464 12.0342 5.8262C12.0962 5.98582 12.1702 6.22571 12.1903 6.66771C12.212 7.1456 12.2168 7.28916 12.2168 8.49901C12.2168 9.70885 12.212 9.85241 12.1903 10.3303C12.1701 10.7723 12.0962 11.0122 12.0342 11.1718C11.952 11.3834 11.8536 11.534 11.6949 11.6926C11.5363 11.8513 11.3856 11.9495 11.174 12.0316C11.0144 12.094 10.7743 12.1676 10.3323 12.1879C9.85439 12.2096 9.71084 12.2143 8.50042 12.2143C7.28992 12.2143 7.14646 12.2096 6.66856 12.1879C6.22656 12.1675 5.98667 12.0936 5.82677 12.0315C5.61521 11.9494 5.4641 11.8512 5.30543 11.6925C5.14676 11.5338 5.04854 11.3831 4.96618 11.1714C4.90413 11.0118 4.83018 10.7719 4.81006 10.3299C4.78834 9.85203 4.784 9.70848 4.784 8.49787C4.784 7.28727 4.78834 7.14447 4.81006 6.66658C4.83028 6.22457 4.90413 5.98468 4.96618 5.82488C5.04835 5.61332 5.14676 5.46221 5.30543 5.30354C5.4641 5.14487 5.61521 5.04665 5.82677 4.96429C5.98657 4.90196 6.22656 4.82829 6.66856 4.80799C7.08677 4.7891 7.24883 4.78343 8.09374 4.78249V4.78362ZM10.9203 5.53635C10.62 5.53635 10.3763 5.77974 10.3763 6.08017C10.3763 6.3805 10.62 6.62417 10.9203 6.62417C11.2206 6.62417 11.4643 6.3805 11.4643 6.08017C11.4643 5.77983 11.2206 5.53635 10.9203 5.53635ZM8.50042 6.17197C7.21474 6.17197 6.17234 7.21436 6.17234 8.50005C6.17234 9.78573 7.21474 10.8277 8.50042 10.8277C9.78611 10.8277 10.8281 9.78573 10.8281 8.50005C10.8281 7.21436 9.78611 6.17197 8.50042 6.17197Z" fill="#CFCFCF"/>
<path fill-rule="evenodd" clip-rule="evenodd" d="M8.50043 6.98892C9.33495 6.98892 10.0116 7.66543 10.0116 8.50005C10.0116 9.33457 9.33495 10.0112 8.50043 10.0112C7.66581 10.0112 6.9893 9.33457 6.9893 8.50005C6.9893 7.66543 7.66581 6.98892 8.50043 6.98892Z" fill="#CFCFCF"/>
</svg>
