<svg width="17" height="17" viewBox="0 0 17 17" fill="none" xmlns="http://www.w3.org/2000/svg">
<path fill-rule="evenodd" clip-rule="evenodd" d="M0 8.5C0 3.80558 3.80558 0 8.5 0C13.1944 0 17 3.80558 17 8.5C17 13.1944 13.1944 17 8.5 17C3.80558 17 0 13.1944 0 8.5ZM6.00686 7.04007H4.08057V12.8278H6.00686V7.04007ZM6.13373 5.24971C6.12123 4.68223 5.71542 4.25 5.05645 4.25C4.39748 4.25 3.96667 4.68223 3.96667 5.24971C3.96667 5.80543 4.38475 6.2501 5.03144 6.2501H5.04375C5.71542 6.2501 6.13373 5.80543 6.13373 5.24971ZM12.9538 9.50928C12.9538 7.73155 12.0035 6.90417 10.7359 6.90417C9.71317 6.90417 9.25528 7.46592 8.99961 7.86V7.04023H7.0731C7.09849 7.58331 7.0731 12.8279 7.0731 12.8279H8.99961V9.59559C8.99961 9.42262 9.01212 9.25006 9.06305 9.12622C9.20227 8.78065 9.51925 8.42287 10.0514 8.42287C10.7488 8.42287 11.0275 8.95359 11.0275 9.73134V12.8278H12.9537L12.9538 9.50928Z" fill="#CFCFCF"/>
</svg>
