<svg width="24" height="32" viewBox="0 0 24 32" fill="none" xmlns="http://www.w3.org/2000/svg">
<path d="M24 20.9999C24.0003 21.1968 23.9617 21.3918 23.8864 21.5737C23.811 21.7557 23.7004 21.9209 23.561 22.0599L15.889 29.7359C14.8575 30.7673 13.4586 31.3467 12 31.3467C10.5413 31.3467 9.14242 30.7673 8.11098 29.7359L0.438975 22.0639C0.157712 21.7825 -0.000246314 21.4009 -0.000152546 21.003C-5.8778e-05 20.6052 0.15808 20.2236 0.439475 19.9424C0.720869 19.6611 1.10247 19.5032 1.50033 19.5033C1.89819 19.5034 2.27971 19.6615 2.56097 19.9429L10.232 27.6149C10.4641 27.8471 10.7398 28.0313 11.0431 28.157C11.3465 28.2827 11.6716 28.3473 12 28.3473C12.3283 28.3473 12.6535 28.2827 12.9568 28.157C13.2602 28.0313 13.5358 27.8471 13.768 27.6149L21.439 19.9429C21.6485 19.7332 21.9155 19.5903 22.2062 19.5323C22.4969 19.4742 22.7982 19.5036 23.0722 19.6167C23.3463 19.7297 23.5806 19.9215 23.7457 20.1677C23.9109 20.4139 23.9993 20.7035 24 20.9999V20.9999Z" fill="#4933D1"/>
<path opacity="0.5" d="M24 11.458C24.0001 11.6551 23.9614 11.8502 23.8861 12.0322C23.8107 12.2143 23.7003 12.3797 23.561 12.519L14.475 21.6C13.818 22.2553 12.9279 22.6232 12 22.6232C11.0721 22.6232 10.1821 22.2553 9.52502 21.6L0.439016 12.519C0.170803 12.2351 0.0239342 11.8577 0.0296402 11.4671C0.0353462 11.0766 0.193176 10.7036 0.469571 10.4276C0.745965 10.1516 1.11912 9.99433 1.50969 9.98918C1.90026 9.98403 2.27744 10.1314 2.56102 10.4L11.646 19.486C11.6925 19.5326 11.7476 19.5695 11.8084 19.5948C11.8691 19.62 11.9342 19.6329 12 19.6329C12.0658 19.6329 12.1309 19.62 12.1916 19.5948C12.2524 19.5695 12.3076 19.5326 12.354 19.486L21.439 10.4C21.6486 10.1903 21.9157 10.0474 22.2065 9.98937C22.4972 9.93134 22.7987 9.96079 23.0727 10.074C23.3468 10.1872 23.5811 10.3791 23.7462 10.6255C23.9112 10.8718 23.9996 11.1615 24 11.458V11.458Z" fill="#4933D1"/>
<path opacity="0.3" d="M23.9705 1.49769C23.9706 1.6947 23.9319 1.88981 23.8566 2.07186C23.7813 2.2539 23.6708 2.41933 23.5315 2.55869L14.4455 11.6397C13.7885 12.2949 12.8985 12.6629 11.9705 12.6629C11.0426 12.6629 10.1526 12.2949 9.49554 11.6397L0.409536 2.55869C0.141323 2.27473 -0.00554573 1.89734 0.000160249 1.50678C0.00586623 1.11622 0.163696 0.743285 0.440091 0.467281C0.716485 0.191278 1.08964 0.0339754 1.48021 0.0288219C1.87078 0.0236685 2.24796 0.171071 2.53154 0.439686L11.6165 9.52569C11.663 9.57225 11.7182 9.60919 11.7789 9.6344C11.8396 9.6596 11.9048 9.67258 11.9705 9.67258C12.0363 9.67258 12.1014 9.6596 12.1622 9.6344C12.2229 9.60919 12.2781 9.57225 12.3245 9.52569L21.4095 0.439686C21.6191 0.22995 21.8862 0.0870407 22.177 0.0290108C22.4678 -0.0290192 22.7692 0.000433616 23.0433 0.113649C23.3173 0.226865 23.5517 0.418765 23.7167 0.665104C23.8817 0.911443 23.9701 1.20117 23.9705 1.49769V1.49769Z" fill="#4933D1"/>
</svg>
