<svg width="7" height="9" viewBox="0 0 7 9" fill="none" xmlns="http://www.w3.org/2000/svg">
<path d="M6.83052 2.92459L4.32247 0.349147C4.10391 0.125521 3.80825 0 3.50007 0C3.19188 0 2.89622 0.125521 2.67766 0.349147L0.16961 2.92459C0.0609757 3.03707 0 3.18923 0 3.34783C0 3.50643 0.0609757 3.65859 0.16961 3.77107C0.223832 3.82734 0.288342 3.872 0.359419 3.90248C0.430495 3.93295 0.506731 3.94865 0.58373 3.94865C0.660728 3.94865 0.736964 3.93295 0.808041 3.90248C0.879117 3.872 0.943627 3.82734 0.99785 3.77107L2.9168 1.79596V8.39966C2.9168 8.55888 2.97825 8.71158 3.08763 8.82417C3.19702 8.93675 3.34537 9 3.50007 9C3.65476 9 3.80311 8.93675 3.9125 8.82417C4.02188 8.71158 4.08333 8.55888 4.08333 8.39966V1.79596L6.00228 3.77107C6.11134 3.88411 6.25956 3.94794 6.41434 3.9485C6.56912 3.94906 6.71778 3.88632 6.82761 3.77407C6.93744 3.66182 6.99945 3.50926 7 3.34995C7.00054 3.19064 6.93958 3.03764 6.83052 2.92459Z" fill="white"/>
</svg>
