<svg width="17" height="17" viewBox="0 0 17 17" fill="none" xmlns="http://www.w3.org/2000/svg">
<path fill-rule="evenodd" clip-rule="evenodd" d="M8.5 17C3.80558 17 0 13.1944 0 8.5C0 3.80558 3.80558 0 8.5 0C13.1944 0 17 3.80558 17 8.5C17 13.1944 13.1944 17 8.5 17ZM8.78017 13.229C11.5669 13.2279 13.8334 10.9608 13.8345 8.1747C13.835 6.8242 13.3098 5.55433 12.3555 4.599C11.4013 3.64362 10.1322 3.11725 8.78012 3.11667C5.99421 3.11667 3.72682 5.38393 3.72571 8.17071C3.72533 9.06153 3.95807 9.93102 4.40038 10.6975L3.68333 13.3167L6.36273 12.6138C7.10097 13.0165 7.93217 13.2287 8.77808 13.229H8.78017Z" fill="#CFCFCF"/>
<path fill-rule="evenodd" clip-rule="evenodd" d="M6.48689 11.6986L4.8969 12.1157L5.32129 10.5655L5.2214 10.4066C4.80088 9.73771 4.57878 8.96465 4.5791 8.17086C4.58002 5.85462 6.4646 3.97021 8.78184 3.97021C9.90393 3.9706 10.9587 4.40813 11.7519 5.2022C12.545 5.99628 12.9816 7.05174 12.9811 8.17426C12.9802 10.4907 11.0956 12.3753 8.78019 12.3753H8.77849C8.02465 12.375 7.28529 12.1724 6.64029 11.7897L6.48689 11.6986ZM11.3265 9.37646C11.295 9.32378 11.2108 9.29218 11.0845 9.22894C10.9582 9.16573 10.3373 8.86024 10.2215 8.81805C10.1058 8.77593 10.0216 8.75487 9.93738 8.88126C9.85321 9.00768 9.61118 9.29218 9.5375 9.37646C9.46383 9.46072 9.39015 9.4713 9.26391 9.40807C9.13762 9.34486 8.73068 9.21151 8.24829 8.78123C7.87285 8.44634 7.61939 8.0328 7.54572 7.90636C7.47205 7.77992 7.53787 7.7116 7.60109 7.64862C7.65791 7.59202 7.72739 7.50108 7.79053 7.42736C7.85368 7.35363 7.87472 7.30092 7.91682 7.21669C7.95892 7.13237 7.93787 7.05864 7.90629 6.99542C7.87472 6.93221 7.62215 6.31057 7.51691 6.0577C7.41439 5.81144 7.31028 5.8448 7.23277 5.84091C7.15918 5.83721 7.0749 5.83643 6.99072 5.83643C6.90653 5.83643 6.7697 5.86804 6.65394 5.99448C6.53818 6.12092 6.21193 6.42646 6.21193 7.04804C6.21193 7.66968 6.66446 8.27021 6.72761 8.35448C6.79075 8.43881 7.61814 9.71439 8.88504 10.2614C9.18635 10.3916 9.42157 10.4693 9.605 10.5275C9.90753 10.6236 10.1829 10.61 10.4004 10.5775C10.6431 10.5413 11.1476 10.272 11.2529 9.97703C11.3581 9.68198 11.3581 9.42912 11.3265 9.37646Z" fill="#CFCFCF"/>
</svg>
