<svg width="17" height="17" viewBox="0 0 17 17" fill="none" xmlns="http://www.w3.org/2000/svg">
<path fill-rule="evenodd" clip-rule="evenodd" d="M0 8.5C0 3.80558 3.80558 0 8.5 0C13.1944 0 17 3.80558 17 8.5C17 13.1944 13.1944 17 8.5 17C3.80558 17 0 13.1944 0 8.5ZM7.87637 5.25221L7.87641 3.4H5.65649C4.4123 3.4 3.4 4.4123 3.4 5.65649V7.79191H5.25221V5.65649C5.25221 5.43354 5.43354 5.25221 5.65649 5.25221H7.87637ZM13.6 11.2797V9.14423H11.7478V11.2797C11.7478 11.5026 11.5665 11.6839 11.3435 11.6839H9.12359V13.5361H11.3435C12.5877 13.5361 13.6 12.5238 13.6 11.2797Z" fill="#CFCFCF"/>
</svg>
